#!OML:ASF H:\charlestonDancing\Project 1\Capture day 1\Session 1\femaleDancer.ASF
:FULLY-SPECIFIED
:DEGREES
111
root -0.224243 17.9422 -1.91658 19.6486 -78.0286 -17.2618
lowerback 21.6028 0.957755 9.25961
upperback 5.46978 3.03905 2.18609
thorax -5.65956 1.24541 -3.65295
lowerneck 2.89547 -2.16132 3.12434
upperneck -3.3225 -2.85131 -2.5317
head -1.61741 -1.41617 -1.2593
rclavicle -5.68524e-014 -3.26007e-014
rhumerus -49.9993 -24.0117 -58.9257
rradius 24.6188
rwrist 34.6438
rhand -39.8246 -44.0288
rfingers 7.12502
rthumb -12.7987 -73.6165
lclavicle -5.68524e-014 -3.26007e-014
lhumerus -58.064 22.5544 10.9943
lradius 139.973
lwrist 7.78129
lhand -13.6246 -8.63794
lfingers 7.12502
lthumb 12.4911 20.9687
rfemur -19.0171 -0.378352 27.6111
rtibia 36.8576
rfoot -13.5423 -6.01444
rtoes -16.1865
lfemur -50.1219 -12.2782 -18.0883
ltibia 79.9754
lfoot -14.149 -9.43607
ltoes -27.6588
112
root -0.240571 18.0121 -1.90201 17.8922 -79.6127 -15.3865
lowerback 21.6131 1.24502 8.62495
upperback 5.76139 3.21211 1.75411
thorax -5.33753 1.35398 -3.80052
lowerneck 2.72588 -1.90692 3.16793
upperneck -3.6048 -2.51824 -2.48968
head -1.66798 -1.25364 -1.26292
rclavicle 7.15625e-015 4.13472e-014
rhumerus -51.2268 -25.7396 -56.2124
rradius 23.3858
rwrist 37.281
rhand -40.8054 -44.1221
rfingers 7.12502
rthumb -13.7441 -73.6482
lclavicle 7.15625e-015 4.13472e-014
lhumerus -59.1189 22.0569 10.7045
lradius 139.797
lwrist 7.41345
lhand -14.4085 -8.97472
lfingers 7.12502
lthumb 11.7352 20.6766
rfemur -19.0577 -1.04084 27.1202
rtibia 36.757
rfoot -12.638 -6.16304
rtoes -18.0075
lfemur -49.8773 -11.6249 -18.6945
ltibia 74.7508
lfoot -14.9035 -9.79404
ltoes -26.4854
113
root -0.257706 18.0646 -1.88687 16.3444 -81.2944 -13.7067
lowerback 21.5152 1.5944 7.98897
upperback 6.01965 3.46542 1.38597
thorax -4.99289 1.49974 -3.89005
lowerneck 2.57444 -1.72391 3.395
upperneck -3.71577 -2.28192 -2.74018
head -1.67844 -1.13574 -1.38957
rclavicle -1.07344e-014 -9.54166e-015
rhumerus -52.3738 -27.3087 -53.307
rradius 22.2575
rwrist 39.8867
rhand -41.5214 -44.7587
rfingers 7.12502
rthumb -14.434 -74.2368
lclavicle -1.07344e-014 -9.54166e-015
lhumerus -60.1973 21.6014 9.99912
lradius 139.603
lwrist 7.44823
lhand -15.023 -9.21226
lfingers 7.12502
lthumb 11.1426 20.4719
rfemur -19.2871 -1.82789 26.7627
rtibia 36.8804
rfoot -12.2619 -5.90991
rtoes -16.072
lfemur -49.2261 -10.8983 -19.0961
ltibia 68.5387
lfoot -15.9679 -9.76727
ltoes -27.2595
114
root -0.272288 18.0839 -1.87473 13.9647 -83.1114 -11.2276
lowerback 21.4606 2.01353 7.139
upperback 6.21176 3.78229 1.07054
thorax -4.75884 1.66863 -3.81778
lowerneck 2.35163 -1.49864 3.83771
upperneck -3.54479 -1.99315 -3.35827
head -1.59262 -0.987592 -1.67435
rclavicle 6.36111e-015 1.59028e-014
rhumerus -53.4218 -28.6005 -50.3131
rradius 21.2721
rwrist 42.0979
rhand -41.1457 -44.6837
rfingers 7.12502
rthumb -14.072 -74.1873
lclavicle 6.36111e-015 1.59028e-014
lhumerus -61.3102 21.2108 8.96328
lradius 139.358
lwrist 7.81538
lhand -15.5512 -9.31551
lfingers 7.12502
lthumb 10.6331 20.3955
rfemur -19.5639 -2.86011 26.4417
rtibia 37.0776
rfoot -12.0271 -5.43031
rtoes -11.9582
lfemur -48.2455 -10.2326 -19.376
ltibia 61.6368
lfoot -16.5657 -9.65012
ltoes -27.0077
115
root -0.284795 18.0673 -1.86917 13.8086 -84.9136 -11.0868
lowerback 21.5019 2.4286 6.51749
upperback 6.34971 4.16103 0.886972
thorax -4.62336 1.85817 -3.75104
lowerneck 2.35755 -1.18255 4.00356
upperneck -3.6524 -1.57939 -3.6733
head -1.61939 -0.777973 -1.81627
rclavicle 5.84427e-014 7.95139e-016
rhumerus -54.284 -29.4804 -47.534
rradius 20.4926
rwrist 43.5733
rhand -41.1661 -44.4067
rfingers 7.12502
rthumb -14.0917 -73.9089
lclavicle 5.84427e-014 7.95139e-016
lhumerus -62.3883 20.8098 7.53713
lradius 139.143
lwrist 8.55684
lhand -16.092 -9.21363
lfingers 7.12502
lthumb 10.1114 20.5234
rfemur -19.6724 -3.86455 26.5892
rtibia 37.1561
rfoot -12.0802 -5.06386
rtoes -8.31475
lfemur -47.0562 -9.77563 -19.0072
ltibia 54.3982
lfoot -17.1006 -9.55816
ltoes -26.2059
116
root -0.296916 18.0228 -1.86553 18.782 -86.5397 -16.1784
lowerback 21.5424 2.79382 6.30109
upperback 6.44884 4.56835 0.808799
thorax -4.50445 2.05865 -3.80561
lowerneck 2.38623 -0.947065 4.02284
upperneck -3.73501 -1.27302 -3.86854
head -1.64123 -0.621745 -1.89088
rclavicle -1.86858e-014 -2.62396e-014
rhumerus -55.0574 -29.9122 -45.1671
rradius 20.168
rwrist 44.1699
rhand -41.4612 -44.8255
rfingers 7.12502
rthumb -14.3761 -74.3077
lclavicle -1.86858e-014 -2.62396e-014
lhumerus -63.2279 20.4032 5.74929
lradius 138.897
lwrist 9.59837
lhand -16.3791 -8.98879
lfingers 7.12502
lthumb 9.83437 20.7616
rfemur -19.5531 -4.58806 27.0318
rtibia 37.0409
rfoot -13.0458 -4.6722
rtoes -6.155
lfemur -45.7371 -9.78384 -17.9582
ltibia 47.139
lfoot -17.6477 -8.84205
ltoes -28.2463
117
root -0.306792 17.9588 -1.85866 26.9119 -87.9937 -24.4484
lowerback 21.5426 3.12083 6.09839
upperback 6.47114 4.936 0.703365
thorax -4.45032 2.23895 -3.88814
lowerneck 2.42024 -0.781944 3.99054
upperneck -3.60057 -1.05528 -4.03135
head -1.59629 -0.508897 -1.94235
rclavicle -4.29375e-014 -1.03368e-014
rhumerus -55.7405 -29.7855 -43.3727
rradius 20.2534
rwrist 43.7519
rhand -41.2194 -45.0882
rfingers 7.12502
rthumb -14.143 -74.5868
lclavicle -4.29375e-014 -1.03368e-014
lhumerus -63.6321 20.072 3.93563
lradius 138.465
lwrist 10.5694
lhand -16.1578 -8.91804
lfingers 7.12502
lthumb 10.048 20.8221
rfemur -19.2855 -4.95679 27.0928
rtibia 36.8203
rfoot -14.7644 -4.13265
rtoes -4.87289
lfemur -44.5388 -10.4046 -16.7602
ltibia 40.42
lfoot -18.2633 -7.92071
ltoes -31.4091
118
root -0.314815 17.8672 -1.8519 61.7086 -89.0473 -59.4702
lowerback 21.5635 3.37868 6.03196
upperback 6.43344 5.2553 0.676257
thorax -4.47209 2.39213 -3.95588
lowerneck 2.65325 -0.597763 3.85869
upperneck -3.48066 -0.807744 -4.15601
head -1.58827 -0.37849 -1.96466
rclavicle -3.53837e-014 2.62396e-014
rhumerus -56.1846 -29.0422 -42.2533
rradius 20.5689
rwrist 42.3551
rhand -41.104 -44.7856
rfingers 7.12502
rthumb -14.0318 -74.2919
lclavicle -3.53837e-014 2.62396e-014
lhumerus -63.828 19.8906 2.17324
lradius 137.928
lwrist 11.4865
lhand -15.5389 -9.07774
lfingers 7.12502
lthumb 10.645 20.6326
rfemur -18.9511 -5.0465 27.0994
rtibia 36.838
rfoot -16.7071 -3.48752
rtoes -4.34154
lfemur -43.6883 -11.5697 -15.1059
ltibia 34.7462
lfoot -17.4237 -8.95717
ltoes -25.1439
119
root -0.305766 17.7599 -1.85232 122.796 -88.5884 -120.795
lowerback 21.6098 3.61686 6.26295
upperback 6.35778 5.6286 0.866565
thorax -4.53429 2.5671 -3.97265
lowerneck 2.86056 -0.419981 3.73474
upperneck -3.2196 -0.57809 -4.56613
head -1.53417 -0.252867 -2.08083
rclavicle -4.25399e-014 -5.56597e-015
rhumerus -56.4291 -27.9226 -41.5922
rradius 21.1673
rwrist 40.5378
rhand -40.8784 -44.7405
rfingers 7.12502
rthumb -13.8144 -74.2617
lclavicle -4.25399e-014 -5.56597e-015
lhumerus -63.9412 19.9738 0.620589
lradius 137.372
lwrist 12.4651
lhand -14.9041 -9.01024
lfingers 7.12502
lthumb 11.2573 20.6677
rfemur -18.8866 -5.02826 27.5973
rtibia 37.2848
rfoot -17.9853 -2.96731
rtoes -4.8147
lfemur -43.2085 -12.1285 -13.4687
ltibia 30.8064
lfoot -17.0525 -8.05345
ltoes -29.081
